<svg xmlns="http://www.w3.org/2000/svg" xmlns:xlink="http://www.w3.org/1999/xlink" version="1.1" data-diagram-type="SEQUENCE" style="width:1028px;height:868px;background:#FFFFFF;" width="1028px" height="868px" viewBox="0 0 1028 868" zoomAndPan="magnify" preserveAspectRatio="none" contentStyleType="text/css"><?plantuml 1.2026.8?><defs/><g font-family="sans-serif"><g class="title" data-source-line="8"><text x="309.459" y="27.995" fill="#000" font-size="14" font-weight="700" font-family="'Segoe UI, Helvetica, Arial'">the stale-fill race, and source-generation validation</text></g><rect x="178.563" y="147.234" width="830.392" height="292.969" fill="none" style="stroke:#000;stroke-width:1.5;"/><rect x="13" y="458.203" width="730.708" height="287.359" fill="none" style="stroke:#000;stroke-width:1.5;"/><g><title>reader R1</title><rect x="191.063" y="135.234" width="8" height="634.328" fill="#000" fill-opacity="0"/><line x1="194.563" y1="135.234" x2="194.563" y2="769.563" style="stroke:#5A6B7D;stroke-width:0.5;stroke-dasharray:5,5;"/></g><g><title>reader R2</title><rect x="303.245" y="135.234" width="8" height="634.328" fill="#000" fill-opacity="0"/><line x1="306.745" y1="135.234" x2="306.745" y2="769.563" style="stroke:#5A6B7D;stroke-width:0.5;stroke-dasharray:5,5;"/></g><g><title>writer W</title><rect x="415.304" y="135.234" width="8" height="634.328" fill="#000" fill-opacity="0"/><line x1="418.804" y1="135.234" x2="418.804" y2="769.563" style="stroke:#5A6B7D;stroke-width:0.5;stroke-dasharray:5,5;"/></g><g><title>source</title><rect x="575.095" y="135.234" width="8" height="634.328" fill="#000" fill-opacity="0"/><line x1="578.595" y1="135.234" x2="578.595" y2="769.563" style="stroke:#5A6B7D;stroke-width:0.5;stroke-dasharray:5,5;"/></g><g><title>shared cache</title><rect x="672.401" y="135.234" width="8" height="634.328" fill="#000" fill-opacity="0"/><line x1="675.901" y1="135.234" x2="675.901" y2="769.563" style="stroke:#5A6B7D;stroke-width:0.5;stroke-dasharray:5,5;"/></g><text x="158.279" y="132.404" fill="#000" font-size="12" font-weight="700" font-family="'Segoe UI, Helvetica, Arial'">reader R1</text><ellipse cx="194.563" cy="69.766" rx="8" ry="8" fill="#FBFBF6" style="stroke:#5A6B7D;stroke-width:0.5;"/><path d="M194.563,77.766 L194.563,104.766 M181.563,85.766 L207.563,85.766 M194.563,104.766 L181.563,119.766 M194.563,104.766 L207.563,119.766" style="stroke:#5A6B7D;stroke-width:0.5;" fill="none"/><text x="270.46" y="118.436" fill="#000" font-size="12" font-weight="700" font-family="'Segoe UI, Helvetica, Arial'">reader R2</text><text x="240.847" y="132.404" fill="#000" font-size="12" font-weight="700" font-family="'Segoe UI, Helvetica, Arial'">(another instance)</text><ellipse cx="306.745" cy="55.797" rx="8" ry="8" fill="#FBFBF6" style="stroke:#5A6B7D;stroke-width:0.5;"/><path d="M306.745,63.797 L306.745,90.797 M293.745,71.797 L319.745,71.797 M306.745,90.797 L293.745,105.797 M306.745,90.797 L319.745,105.797" style="stroke:#5A6B7D;stroke-width:0.5;" fill="none"/><rect x="382.642" y="106.266" width="72.324" height="27.969" fill="#E8EDF4" style="stroke:#5A6B7D;stroke-width:0.5;" rx="2.5" ry="2.5"/><text x="389.642" y="124.404" fill="#000" font-size="12" font-weight="700" font-family="'Segoe UI, Helvetica, Arial'">writer W</text><text x="555.539" y="118.436" fill="#000" font-size="12" font-family="'Segoe UI, Helvetica, Arial'">source</text><text x="543.096" y="132.404" fill="#000" font-size="12" font-family="'Segoe UI, Helvetica, Arial'">(database)</text><path d="M560.595,71.297 C560.595,61.297 578.595,61.297 578.595,61.297 C578.595,61.297 596.595,61.297 596.595,71.297 L596.595,97.297 C596.595,107.297 578.595,107.297 578.595,107.297 C578.595,107.297 560.595,107.297 560.595,97.297 L560.595,71.297" style="stroke:#181818;stroke-width:0.5;" fill="#E2E2F0"/><path d="M560.595,71.297 C560.595,81.297 578.595,81.297 578.595,81.297 C578.595,81.297 596.595,81.297 596.595,71.297" style="stroke:#181818;stroke-width:0.5;" fill="none"/><rect x="624.094" y="106.266" width="103.613" height="27.969" fill="#E8EDF4" style="stroke:#5A6B7D;stroke-width:0.5;" rx="2.5" ry="2.5"/><text x="631.094" y="124.404" fill="#000" font-size="12" font-weight="700" font-family="'Segoe UI, Helvetica, Arial'">shared cache</text><text x="158.279" y="780.701" fill="#000" font-size="12" font-weight="700" font-family="'Segoe UI, Helvetica, Arial'">reader R1</text><ellipse cx="194.563" cy="792.031" rx="8" ry="8" fill="#FBFBF6" style="stroke:#5A6B7D;stroke-width:0.5;"/><path d="M194.563,800.031 L194.563,827.031 M181.563,808.031 L207.563,808.031 M194.563,827.031 L181.563,842.031 M194.563,827.031 L207.563,842.031" style="stroke:#5A6B7D;stroke-width:0.5;" fill="none"/><text x="270.46" y="780.701" fill="#000" font-size="12" font-weight="700" font-family="'Segoe UI, Helvetica, Arial'">reader R2</text><text x="240.847" y="794.67" fill="#000" font-size="12" font-weight="700" font-family="'Segoe UI, Helvetica, Arial'">(another instance)</text><ellipse cx="306.745" cy="806" rx="8" ry="8" fill="#FBFBF6" style="stroke:#5A6B7D;stroke-width:0.5;"/><path d="M306.745,814 L306.745,841 M293.745,822 L319.745,822 M306.745,841 L293.745,856 M306.745,841 L319.745,856" style="stroke:#5A6B7D;stroke-width:0.5;" fill="none"/><rect x="382.642" y="769.563" width="72.324" height="27.969" fill="#E8EDF4" style="stroke:#5A6B7D;stroke-width:0.5;" rx="2.5" ry="2.5"/><text x="389.642" y="787.701" fill="#000" font-size="12" font-weight="700" font-family="'Segoe UI, Helvetica, Arial'">writer W</text><text x="555.539" y="780.701" fill="#000" font-size="12" font-family="'Segoe UI, Helvetica, Arial'">source</text><text x="543.096" y="794.67" fill="#000" font-size="12" font-family="'Segoe UI, Helvetica, Arial'">(database)</text><path d="M560.595,807.5 C560.595,797.5 578.595,797.5 578.595,797.5 C578.595,797.5 596.595,797.5 596.595,807.5 L596.595,833.5 C596.595,843.5 578.595,843.5 578.595,843.5 C578.595,843.5 560.595,843.5 560.595,833.5 L560.595,807.5" style="stroke:#181818;stroke-width:0.5;" fill="#E2E2F0"/><path d="M560.595,807.5 C560.595,817.5 578.595,817.5 578.595,817.5 C578.595,817.5 596.595,817.5 596.595,807.5" style="stroke:#181818;stroke-width:0.5;" fill="none"/><rect x="624.094" y="769.563" width="103.613" height="27.969" fill="#E8EDF4" style="stroke:#5A6B7D;stroke-width:0.5;" rx="2.5" ry="2.5"/><text x="631.094" y="787.701" fill="#000" font-size="12" font-weight="700" font-family="'Segoe UI, Helvetica, Arial'">shared cache</text><path d="M178.563,147.234 L528.959,147.234 L528.959,153.203 L518.959,163.203 L178.563,163.203 L178.563,147.234" style="stroke:#000;stroke-width:1.5;" fill="#EEE"/><rect x="178.563" y="147.234" width="830.392" height="292.969" fill="none" style="stroke:#000;stroke-width:1.5;"/><text x="193.563" y="159.373" fill="#000" font-size="12" font-weight="700" font-family="'Segoe UI, Helvetica, Arial'">unsafe: "publish after commit" is not enough</text><polygon points="566.595,189.172,576.595,193.172,566.595,197.172,570.595,193.172" fill="#5A6B7D" style="stroke:#5A6B7D;stroke-width:1;stroke-linejoin:miter;stroke-miterlimit:10;"/><line x1="194.563" y1="193.172" x2="572.595" y2="193.172" style="stroke:#5A6B7D;stroke-width:1;"/><text x="201.563" y="188.342" fill="#5A6B7D" font-size="12" font-family="'Segoe UI, Helvetica, Arial'">1 read  → S0 / v0</text><polygon points="205.563,217.141,195.563,221.141,205.563,225.141,201.563,221.141" fill="#5A6B7D" style="stroke:#5A6B7D;stroke-width:1;stroke-linejoin:miter;stroke-miterlimit:10;"/><line x1="199.563" y1="221.141" x2="577.595" y2="221.141" style="stroke:#5A6B7D;stroke-width:1;stroke-dasharray:2,2;"/><text x="211.563" y="216.311" fill="#5A6B7D" font-size="12" font-family="'Segoe UI, Helvetica, Arial'">committed S0 (version v0)</text><polygon points="566.595,245.109,576.595,249.109,566.595,253.109,570.595,249.109" fill="#5A6B7D" style="stroke:#5A6B7D;stroke-width:1;stroke-linejoin:miter;stroke-miterlimit:10;"/><line x1="418.804" y1="249.109" x2="572.595" y2="249.109" style="stroke:#5A6B7D;stroke-width:1;"/><text x="425.804" y="244.279" fill="#5A6B7D" font-size="12" font-family="'Segoe UI, Helvetica, Arial'">2 write S1 · commit</text><polygon points="566.595,273.078,576.595,277.078,566.595,281.078,570.595,277.078" fill="#5A6B7D" style="stroke:#5A6B7D;stroke-width:1;stroke-linejoin:miter;stroke-miterlimit:10;"/><line x1="418.804" y1="277.078" x2="572.595" y2="277.078" style="stroke:#5A6B7D;stroke-width:1;"/><text x="425.804" y="272.248" fill="#5A6B7D" font-size="12" font-family="'Segoe UI, Helvetica, Arial'">3 source version := v1</text><polygon points="663.901,301.047,673.901,305.047,663.901,309.047,667.901,305.047" fill="#5A6B7D" style="stroke:#5A6B7D;stroke-width:1;stroke-linejoin:miter;stroke-miterlimit:10;"/><line x1="418.804" y1="305.047" x2="669.901" y2="305.047" style="stroke:#5A6B7D;stroke-width:1;"/><text x="425.804" y="300.217" fill="#5A6B7D" font-size="12" font-family="'Segoe UI, Helvetica, Arial'">4 invalidate key</text><polygon points="663.901,329.016,673.901,333.016,663.901,337.016,667.901,333.016" fill="#5A6B7D" style="stroke:#5A6B7D;stroke-width:1;stroke-linejoin:miter;stroke-miterlimit:10;"/><line x1="194.563" y1="333.016" x2="669.901" y2="333.016" style="stroke:#5A6B7D;stroke-width:1;"/><text x="201.563" y="328.186" fill="#5A6B7D" font-size="12" font-family="'Segoe UI, Helvetica, Arial'">5 publish S0 (fill)</text><polygon points="663.901,356.984,673.901,360.984,663.901,364.984,667.901,360.984" fill="#5A6B7D" style="stroke:#5A6B7D;stroke-width:1;stroke-linejoin:miter;stroke-miterlimit:10;"/><line x1="306.745" y1="360.984" x2="669.901" y2="360.984" style="stroke:#5A6B7D;stroke-width:1;"/><text x="313.745" y="356.154" fill="#5A6B7D" font-size="12" font-family="'Segoe UI, Helvetica, Arial'">6 read → hits the stale fill S0</text><path d="M680.901,373.984 L680.901,434.984 L987.901,434.984 L987.901,383.984 L977.901,373.984 L680.901,373.984" style="stroke:#BDBDB0;stroke-width:0.5;" fill="#FBFBF6"/><path d="M977.901,373.984 L977.901,383.984 L987.901,383.984 L977.901,373.984" style="stroke:#BDBDB0;stroke-width:0.5;" fill="#FBFBF6"/><text x="686.901" y="389.195" fill="#000" font-size="11" font-family="'Segoe UI, Helvetica, Arial'">A committed-but-older value is now resident.</text><text x="686.901" y="402" fill="#000" font-size="11" font-family="'Segoe UI, Helvetica, Arial'">This is the race the claim's wrong reads came from:</text><text x="686.901" y="414.804" fill="#000" font-size="11" font-family="'Segoe UI, Helvetica, Arial'">the invalidation at step 4 orders nothing about</text><text x="686.901" y="427.609" fill="#000" font-size="11" font-family="'Segoe UI, Helvetica, Arial'">the fill already in flight at step 5.</text><path d="M13,458.203 L411.268,458.203 L411.268,464.172 L401.268,474.172 L13,474.172 L13,458.203" style="stroke:#000;stroke-width:1.5;" fill="#EEE"/><rect x="13" y="458.203" width="730.708" height="287.359" fill="none" style="stroke:#000;stroke-width:1.5;"/><text x="28" y="470.342" fill="#000" font-size="12" font-weight="700" font-family="'Segoe UI, Helvetica, Arial'">fenced: source-generation validation refuses the fill</text><polygon points="566.595,500.141,576.595,504.141,566.595,508.141,570.595,504.141" fill="#5A6B7D" style="stroke:#5A6B7D;stroke-width:1;stroke-linejoin:miter;stroke-miterlimit:10;"/><line x1="194.563" y1="504.141" x2="572.595" y2="504.141" style="stroke:#5A6B7D;stroke-width:1;"/><text x="201.563" y="499.311" fill="#5A6B7D" font-size="12" font-family="'Segoe UI, Helvetica, Arial'">1 current source generation?</text><polygon points="205.563,528.109,195.563,532.109,205.563,536.109,201.563,532.109" fill="#5A6B7D" style="stroke:#5A6B7D;stroke-width:1;stroke-linejoin:miter;stroke-miterlimit:10;"/><line x1="199.563" y1="532.109" x2="577.595" y2="532.109" style="stroke:#5A6B7D;stroke-width:1;stroke-dasharray:2,2;"/><text x="211.563" y="527.279" fill="#5A6B7D" font-size="12" font-family="'Segoe UI, Helvetica, Arial'">2 v1</text><path d="M34,545.109 L34,567.109 L355,567.109 L355,555.109 L345,545.109 L34,545.109" style="stroke:#BDBDB0;stroke-width:0.5;" fill="#FBFBF6"/><path d="M345,545.109 L345,555.109 L355,555.109 L345,545.109" style="stroke:#BDBDB0;stroke-width:0.5;" fill="#FBFBF6"/><text x="40" y="560.32" fill="#000" font-size="11" font-family="'Segoe UI, Helvetica, Arial'">R1 observed v0. v1 &lt;> v0, so R1 must not publish S0.</text><polygon points="663.901,588.883,673.901,592.883,663.901,596.883,667.901,592.883" fill="#5A6B7D" style="stroke:#5A6B7D;stroke-width:1;stroke-linejoin:miter;stroke-miterlimit:10;"/><line x1="194.563" y1="592.883" x2="669.901" y2="592.883" style="stroke:#5A6B7D;stroke-width:1;"/><text x="201.563" y="588.053" fill="#5A6B7D" font-size="12" font-family="'Segoe UI, Helvetica, Arial'">3 publish nothing</text><polygon points="663.901,616.852,673.901,620.852,663.901,624.852,667.901,620.852" fill="#5A6B7D" style="stroke:#5A6B7D;stroke-width:1;stroke-linejoin:miter;stroke-miterlimit:10;"/><line x1="306.745" y1="620.852" x2="669.901" y2="620.852" style="stroke:#5A6B7D;stroke-width:1;"/><text x="313.745" y="616.021" fill="#5A6B7D" font-size="12" font-family="'Segoe UI, Helvetica, Arial'">4 read → miss</text><polygon points="566.595,644.82,576.595,648.82,566.595,652.82,570.595,648.82" fill="#5A6B7D" style="stroke:#5A6B7D;stroke-width:1;stroke-linejoin:miter;stroke-miterlimit:10;"/><line x1="306.745" y1="648.82" x2="572.595" y2="648.82" style="stroke:#5A6B7D;stroke-width:1;"/><text x="313.745" y="643.99" fill="#5A6B7D" font-size="12" font-family="'Segoe UI, Helvetica, Arial'">5 authoritative read</text><polygon points="317.745,672.789,307.745,676.789,317.745,680.789,313.745,676.789" fill="#5A6B7D" style="stroke:#5A6B7D;stroke-width:1;stroke-linejoin:miter;stroke-miterlimit:10;"/><line x1="311.745" y1="676.789" x2="577.595" y2="676.789" style="stroke:#5A6B7D;stroke-width:1;stroke-dasharray:2,2;"/><text x="323.745" y="671.959" fill="#5A6B7D" font-size="12" font-family="'Segoe UI, Helvetica, Arial'">S1 / v1</text><polygon points="663.901,700.758,673.901,704.758,663.901,708.758,667.901,704.758" fill="#5A6B7D" style="stroke:#5A6B7D;stroke-width:1;stroke-linejoin:miter;stroke-miterlimit:10;"/><line x1="306.745" y1="704.758" x2="669.901" y2="704.758" style="stroke:#5A6B7D;stroke-width:1;"/><text x="313.745" y="699.928" fill="#5A6B7D" font-size="12" font-family="'Segoe UI, Helvetica, Arial'">6 fill S1 / v1 (safe)</text><path d="M252.893,717.758 L252.893,739.758 L728.893,739.758 L728.893,727.758 L718.893,717.758 L252.893,717.758" style="stroke:#BDBDB0;stroke-width:0.5;" fill="#FBFBF6"/><path d="M718.893,717.758 L718.893,727.758 L728.893,727.758 L718.893,717.758" style="stroke:#BDBDB0;stroke-width:0.5;" fill="#FBFBF6"/><text x="378.899" y="732.968" fill="#000" font-size="11" font-family="'Segoe UI, Helvetica, Arial'">R2 served the source, not a stale copy.</text><?plantuml-src VLHBRYCt4DttAIhQs0RS6ajZpq999XWxoG5a0zuCCA3OrMh2R5B3JolQPPK317ENx7CKdsGUsHzPZf5TWrNrME_3_a4PgMF5zCM7W-RvBhQwEADRQv-eLjlec9x__4QXOV91Q2vhfJKv8Pc4gKW5Jzv69xdSic4dWhA6QZQIvu3vtRfsHPw_ndn2ltMgIby9AqI_8hlnx3gkoB6FEkIxL23S4Nq06djKjie7TcYIMgWMiDsoNDpGUMWS0weHgQOCC07jAPgA7SQq-0FdDP0RmzvVqEQ0PhjNPflvj2mROPHl4mkWxfr5nR6eF4dHCaPjEwTxQNUyUbC1Q_JXnw7Yb0obgB5eAUIJiNlDrPPRDW7GqXgmaM7Ix5KBRIos5kv0u482Ykr4OZzOCAU7PlmcRZUC3Oq5RkwnTOQqUzFlaW-LpnfdOV9frWwyN4KRzh01G_CYgA3vBMwNUTN_Mji9hQhyMHGWP1tDac8GVBsOaV2qVdsy_6pEXR6umqqcNVIjom8qWv9g9w31REyKvAF7N7miS8tO2CyqwzS0pdZKp_zwUpe_944AsN1kk2kAhRDnXqXuKSF4sIvkjF8DPQDWIzkgC4jYOK5YO-EsAOZML7u4EgreaVD0zFpNttH_HU-ekq8TfH8TQpJq44bdbCyxTZwhT7M1jiS9PacP6zqlwDz_XfcJXlU3r3GYh7wcRZ6stA7Z6k8DuZCzyM5SCzLkQEILbaWUfklNox7-eMUHI3GfAfFVbFs-JvmW0AAZjar8WRh32T6d8xro4qDfTN8KMqJkDTkdTvkUDAAK1XuQ72i_n53oCNbd_kttjSfpgMsYb-YBW0Lv1zRMuSxiJvCUhi1B2TDCNb_eX7b8GQzr9Z1EtwIj63bEv0fyZ7d8FwXgzR_vngPrzEodYru5GqRdqjCTZ3jY_7AQa6LlPDRNTkb5u72zEFxwkgivMkYdZ_Yw15mgjlZzvKmUZPs_TFpzL1Y4EV7x-kXtgxoVQddp6n8nD1PvnBOTvzON6o_HWfY-wxT-cQ4-Ats9pjE3kZZbjRpCdPWPcEMSPNakCnanf0v_rCCy-V4T?></g></svg>