<svg xmlns="http://www.w3.org/2000/svg" xmlns:xlink="http://www.w3.org/1999/xlink" version="1.1" data-diagram-type="CLASS" style="width:399px;height:482px;background:#FFFFFF;" width="399px" height="482px" viewBox="0 0 399 482" zoomAndPan="magnify" preserveAspectRatio="none" contentStyleType="text/css"><?plantuml 1.2026.8?><defs/><g font-family="sans-serif" lengthAdjust="spacing"><g class="title" data-source-line="2"><text x="10" y="22.995" fill="#000" font-size="14" textLength="372.367" font-weight="700" font-family="'Segoe UI, Helvetica, Arial'">d13_recency_sql — D12 + recency SQL rewrites</text></g><!--class charity--><g class="entity" data-qualified-name="charity" id="ent0001" data-source-line="3"><rect x="117.797" y="44.297" width="157.709" height="43.609" fill="#FFF" style="stroke:#5A6B7D;stroke-width:0.5;" rx="2.5" ry="2.5"/><rect x="117.797" y="44.297" width="157.709" height="22.805" fill="#E8EDF4" style="stroke:#E8EDF4;stroke-width:0.5;" rx="2.5" ry="2.5"/><rect x="117.797" y="64.602" width="157.709" height="2.5" fill="#E8EDF4" style="stroke:#E8EDF4;stroke-width:0.5;"/><rect x="117.797" y="44.297" width="157.709" height="43.609" fill="none" style="stroke:#5A6B7D;stroke-width:0.5;" rx="2.5" ry="2.5"/><text x="177.571" y="59.507" fill="#000" font-size="11" textLength="38.162" font-family="'Segoe UI, Helvetica, Arial'">charity</text><line x1="118.797" y1="67.102" x2="274.506" y2="67.102" style="stroke:#5A6B7D;stroke-width:0.5;"/><g data-visibility-modifier="IE_MANDATORY"><ellipse cx="128.797" cy="79.004" rx="3" ry="3" fill="#000" style="stroke:#000;stroke-width:1;"/></g><text x="136.797" y="81.312" fill="#000" font-size="11" textLength="132.709" font-family="'Segoe UI, Helvetica, Arial'">charity_id : BIGINT «PK»</text></g><!--class person--><g class="entity" data-qualified-name="person" id="ent0002" data-source-line="6"><rect x="51.947" y="147.907" width="157.403" height="56.414" fill="#FFF" style="stroke:#5A6B7D;stroke-width:0.5;" rx="2.5" ry="2.5"/><rect x="51.947" y="147.907" width="157.403" height="22.805" fill="#E8EDF4" style="stroke:#E8EDF4;stroke-width:0.5;" rx="2.5" ry="2.5"/><rect x="51.947" y="168.212" width="157.403" height="2.5" fill="#E8EDF4" style="stroke:#E8EDF4;stroke-width:0.5;"/><rect x="51.947" y="147.907" width="157.403" height="56.414" fill="none" style="stroke:#5A6B7D;stroke-width:0.5;" rx="2.5" ry="2.5"/><text x="111.796" y="163.117" fill="#000" font-size="11" textLength="37.705" font-family="'Segoe UI, Helvetica, Arial'">person</text><line x1="52.947" y1="170.712" x2="208.35" y2="170.712" style="stroke:#5A6B7D;stroke-width:0.5;"/><g data-visibility-modifier="IE_MANDATORY"><ellipse cx="62.947" cy="182.614" rx="3" ry="3" fill="#000" style="stroke:#000;stroke-width:1;"/></g><text x="70.947" y="184.922" fill="#000" font-size="11" textLength="132.252" font-family="'Segoe UI, Helvetica, Arial'">person_id : BIGINT «PK»</text><g data-visibility-modifier="IE_MANDATORY"><ellipse cx="62.947" cy="195.419" rx="3" ry="3" fill="#000" style="stroke:#000;stroke-width:1;"/></g><text x="70.947" y="197.727" fill="#000" font-size="11" textLength="132.403" font-family="'Segoe UI, Helvetica, Arial'">charity_id : BIGINT «FK»</text></g><!--class donation--><g class="entity" data-qualified-name="donation" id="ent0003" data-source-line="10"><rect x="96.167" y="264.327" width="200.962" height="94.828" fill="#FFF" style="stroke:#5A6B7D;stroke-width:0.5;" rx="2.5" ry="2.5"/><rect x="96.167" y="264.327" width="200.962" height="22.805" fill="#E8EDF4" style="stroke:#E8EDF4;stroke-width:0.5;" rx="2.5" ry="2.5"/><rect x="96.167" y="284.632" width="200.962" height="2.5" fill="#E8EDF4" style="stroke:#E8EDF4;stroke-width:0.5;"/><rect x="96.167" y="264.327" width="200.962" height="94.828" fill="none" style="stroke:#5A6B7D;stroke-width:0.5;" rx="2.5" ry="2.5"/><text x="172.4" y="279.537" fill="#000" font-size="11" textLength="48.496" font-family="'Segoe UI, Helvetica, Arial'">donation</text><line x1="97.167" y1="287.132" x2="296.129" y2="287.132" style="stroke:#5A6B7D;stroke-width:0.5;"/><g data-visibility-modifier="IE_MANDATORY"><ellipse cx="107.167" cy="299.034" rx="3" ry="3" fill="#000" style="stroke:#000;stroke-width:1;"/></g><text x="115.167" y="301.342" fill="#000" font-size="11" textLength="143.043" font-family="'Segoe UI, Helvetica, Arial'">donation_id : BIGINT «PK»</text><g data-visibility-modifier="IE_MANDATORY"><ellipse cx="107.167" cy="311.839" rx="3" ry="3" fill="#000" style="stroke:#000;stroke-width:1;"/></g><text x="115.167" y="314.147" fill="#000" font-size="11" textLength="131.946" font-family="'Segoe UI, Helvetica, Arial'">person_id : BIGINT «FK»</text><g data-visibility-modifier="IE_MANDATORY"><ellipse cx="107.167" cy="324.643" rx="3" ry="3" fill="#000" style="stroke:#000;stroke-width:1;"/></g><text x="115.167" y="326.951" fill="#000" font-size="11" textLength="175.962" font-family="'Segoe UI, Helvetica, Arial'">charity_id : BIGINT «FK, copied»</text><g data-visibility-modifier="IE_MANDATORY"><ellipse cx="107.167" cy="337.448" rx="3" ry="3" fill="#000" style="stroke:#000;stroke-width:1;"/></g><text x="115.167" y="339.756" fill="#000" font-size="11" textLength="125.979" font-family="'Segoe UI, Helvetica, Arial'">amount_cents : BIGINT</text><g data-visibility-modifier="IE_MANDATORY"><ellipse cx="107.167" cy="350.253" rx="3" ry="3" fill="#000" style="stroke:#000;stroke-width:1;"/></g><text x="115.167" y="352.561" fill="#000" font-size="11" textLength="150.75" font-family="'Segoe UI, Helvetica, Arial'">donated_at : TIMESTAMPTZ</text></g><g class="entity" data-qualified-name="GMN7" id="ent0008" data-source-line="21"><path d="M53.867,419.157 L53.867,467.571 A0,0 0 0 0 53.867,467.571 L339.42,467.571 A0,0 0 0 0 339.42,467.571 L339.42,429.157 L329.42,419.157 L200.647,419.157 L196.647,359.627 L192.647,419.157 L53.867,419.157 A0,0 0 0 0 53.867,419.157" style="stroke:#BDBDB0;stroke-width:0.5;" fill="#FBFBF6"/><path d="M329.42,419.157 L329.42,429.157 L339.42,429.157 L329.42,419.157" style="stroke:#BDBDB0;stroke-width:0.5;" fill="#FBFBF6"/><text x="59.867" y="434.367" fill="#000" font-size="11" textLength="155.751" font-family="'Segoe UI, Helvetica, Arial'">D12 + recency SQL rewrites</text><text x="59.867" y="447.172" fill="#000" font-size="11" textLength="264.553" font-family="'Segoe UI, Helvetica, Arial'">See ENHANCEMENTS.md for the controlled pair.</text><text x="59.867" y="459.977" fill="#000" font-size="11" textLength="263.114" font-family="'Segoe UI, Helvetica, Arial'">Plans, not index names, establish heap fetches.</text></g><!--link charity to person--><g class="link" data-entity-1="ent0001" data-entity-2="ent0002" id="lnk4" data-source-line="17" data-link-type="crowfoot"><path d="M163.567,96.367 C163.567,113.447 163.567,111.147 163.567,129.607" style="stroke:#5A6B7D;stroke-width:1;" fill="none" id="charity-person" codeLine="17"/><line x1="159.567" y1="92.367" x2="167.567" y2="92.367" style="stroke:#5A6B7D;stroke-width:1;"/><line x1="159.567" y1="95.367" x2="167.567" y2="95.367" style="stroke:#5A6B7D;stroke-width:1;"/><line x1="163.567" y1="96.367" x2="163.567" y2="88.367" style="stroke:#5A6B7D;stroke-width:1;"/><line x1="163.567" y1="139.607" x2="169.567" y2="147.607" style="stroke:#5A6B7D;stroke-width:1;"/><line x1="163.567" y1="139.607" x2="157.567" y2="147.607" style="stroke:#5A6B7D;stroke-width:1;"/><line x1="163.567" y1="139.607" x2="163.567" y2="147.607" style="stroke:#5A6B7D;stroke-width:1;"/><ellipse cx="163.567" cy="133.607" rx="4" ry="4" fill="none" style="stroke:#5A6B7D;stroke-width:1;"/></g><!--link person to donation--><g class="link" data-entity-1="ent0002" data-entity-2="ent0003" id="lnk5" data-source-line="18" data-link-type="crowfoot"><path d="M152.757,212.547 C152.757,229.717 152.757,226.027 152.757,245.857" style="stroke:#5A6B7D;stroke-width:1;" fill="none" id="person-donation" codeLine="18"/><line x1="148.757" y1="208.547" x2="156.757" y2="208.547" style="stroke:#5A6B7D;stroke-width:1;"/><line x1="148.757" y1="211.547" x2="156.757" y2="211.547" style="stroke:#5A6B7D;stroke-width:1;"/><line x1="152.757" y1="212.547" x2="152.757" y2="204.547" style="stroke:#5A6B7D;stroke-width:1;"/><line x1="152.757" y1="255.857" x2="158.757" y2="263.857" style="stroke:#5A6B7D;stroke-width:1;"/><line x1="152.757" y1="255.857" x2="146.757" y2="263.857" style="stroke:#5A6B7D;stroke-width:1;"/><line x1="152.757" y1="255.857" x2="152.757" y2="263.857" style="stroke:#5A6B7D;stroke-width:1;"/><ellipse cx="152.757" cy="249.857" rx="4" ry="4" fill="none" style="stroke:#5A6B7D;stroke-width:1;"/></g><!--link charity to donation--><g class="link" data-entity-1="ent0001" data-entity-2="ent0003" id="lnk6" data-source-line="19" data-link-type="crowfoot"><path d="M242.427,96.337 C242.427,135.897 242.427,193.327 242.427,246.287" style="stroke:#5A6B7D;stroke-width:1;stroke-dasharray:7,7;" fill="none" id="charity-donation" codeLine="19"/><line x1="238.427" y1="92.337" x2="246.427" y2="92.337" style="stroke:#5A6B7D;stroke-width:1;"/><line x1="238.427" y1="95.337" x2="246.427" y2="95.337" style="stroke:#5A6B7D;stroke-width:1;"/><line x1="242.427" y1="96.337" x2="242.427" y2="88.337" style="stroke:#5A6B7D;stroke-width:1;"/><line x1="242.427" y1="256.287" x2="248.427" y2="264.287" style="stroke:#5A6B7D;stroke-width:1;"/><line x1="242.427" y1="256.287" x2="236.427" y2="264.287" style="stroke:#5A6B7D;stroke-width:1;"/><line x1="242.427" y1="256.287" x2="242.427" y2="264.287" style="stroke:#5A6B7D;stroke-width:1;"/><ellipse cx="242.427" cy="250.287" rx="4" ry="4" fill="none" style="stroke:#5A6B7D;stroke-width:1;"/></g><?plantuml-src XL71Ji904BttAvvNXIRepH0IrA94QJ3jYKkpT8Tqa-rkxGvH0YP-X5_ebxZ45Z01FUtEovlttioSAPFhfIHaZbUQmcfPwe0LQuBiNMKrvMJoLUPUDBu-Fd7NkyG56XJ9yvF_lzQAoGLaVDiAUI7gxRiEWFEsofJ4DMx6z-CuHRy_VHmCWlUsewBQMTCq_1J7-AVbHh_af3M2rKwmBKz97ZKS_MVOGMuhHRAXYT8k3MT-A-nsnBqzoKomnzFn94hIuMIQpdpUTbERJRThrqsGeDb60xRf3yXXU8WRouIvPRObx6AFuwzJ0GaHelXX6Dz6aoXEax2KMDWQN92Vp71jjIQ9IgWwzFIf5iPruCsWZAGt656I1yYnc6lb2XGaAYo8yu9Sw4yXjsJw1W00?></g></svg>