<svg xmlns="http://www.w3.org/2000/svg" xmlns:xlink="http://www.w3.org/1999/xlink" version="1.1" data-diagram-type="CLASS" style="width:634px;height:881px;background:#FFFFFF;" width="634px" height="881px" viewBox="0 0 634 881" zoomAndPan="magnify" preserveAspectRatio="none" contentStyleType="text/css"><?plantuml 1.2026.8?><defs><filter id="b10mctg9dmscjo0" x="0" y="0" width="1" height="1"><feFlood flood-color="#D8F0DE" result="flood"/><feComposite in="SourceGraphic" in2="flood" operator="over"/></filter><filter id="b10mctg9dmscjo1" x="0" y="0" width="1" height="1"><feFlood flood-color="#FFF3CD" result="flood"/><feComposite in="SourceGraphic" in2="flood" operator="over"/></filter><filter id="b10mctg9dmscjo2" x="0" y="0" width="1" height="1"><feFlood flood-color="#FFCCCC" result="flood"/><feComposite in="SourceGraphic" in2="flood" operator="over"/></filter></defs><g font-family="sans-serif" lengthAdjust="spacing"><g class="title" data-source-line="2"><text x="54.98" y="22.995" fill="#000" font-size="14" textLength="517.139" font-weight="700" font-family="'Segoe UI, Helvetica, Arial'">D4 — rollup-trigger  (answers consolidated upward at write time)</text></g><!--class c--><g class="entity" data-qualified-name="c" id="ent0001" data-source-line="4"><rect x="203.82" y="44.297" width="191.099" height="162.047" fill="#FFF" style="stroke:#5A6B7D;stroke-width:0.5;" rx="2.5" ry="2.5"/><rect x="203.82" y="44.297" width="191.099" height="22.805" fill="#E8EDF4" style="stroke:#E8EDF4;stroke-width:0.5;" rx="2.5" ry="2.5"/><rect x="203.82" y="64.602" width="191.099" height="2.5" fill="#E8EDF4" style="stroke:#E8EDF4;stroke-width:0.5;"/><rect x="203.82" y="44.297" width="191.099" height="162.047" fill="none" style="stroke:#5A6B7D;stroke-width:0.5;" rx="2.5" ry="2.5"/><text x="280.289" y="59.507" fill="#000" font-size="11" textLength="38.162" font-family="'Segoe UI, Helvetica, Arial'">charity</text><line x1="204.82" y1="67.102" x2="393.919" y2="67.102" style="stroke:#5A6B7D;stroke-width:0.5;"/><g data-visibility-modifier="IE_MANDATORY"><ellipse cx="214.82" cy="79.004" rx="3" ry="3" fill="#000" style="stroke:#000;stroke-width:1;"/></g><text x="222.82" y="81.312" fill="#000" font-size="11" textLength="132.709" font-family="'Segoe UI, Helvetica, Arial'">charity_id : BIGINT «PK»</text><line x1="204.82" y1="87.906" x2="393.919" y2="87.906" style="stroke:#5A6B7D;stroke-width:1;"/><g data-visibility-modifier="IE_MANDATORY"><ellipse cx="214.82" cy="99.809" rx="3" ry="3" fill="#000" style="stroke:#000;stroke-width:1;"/></g><text x="222.82" y="102.117" fill="#000" font-size="11" textLength="69.819" font-family="'Segoe UI, Helvetica, Arial'">name : TEXT</text><g data-visibility-modifier="IE_MANDATORY"><ellipse cx="214.82" cy="112.613" rx="3" ry="3" fill="#000" style="stroke:#000;stroke-width:1;"/></g><text x="222.82" y="114.921" fill="#000" font-size="11" textLength="80.69" font-family="'Segoe UI, Helvetica, Arial'">country : TEXT</text><g data-visibility-modifier="IE_MANDATORY"><ellipse cx="214.82" cy="125.418" rx="3" ry="3" fill="#000" style="stroke:#000;stroke-width:1;"/></g><text x="222.82" y="127.726" fill="#000" font-size="11" textLength="104.844" font-family="'Segoe UI, Helvetica, Arial'">founded_on : DATE</text><line x1="204.82" y1="134.32" x2="393.919" y2="134.32" style="stroke:#5A6B7D;stroke-width:1;"/><text x="209.82" y="148.531" fill="#000" font-size="11" textLength="142.232" font-family="'Segoe UI, Helvetica, Arial'" filter="url(#b10mctg9dmscjo0)">* donation_count : BIGINT</text><text x="209.82" y="161.335" fill="#000" font-size="11" textLength="168.674" font-family="'Segoe UI, Helvetica, Arial'" filter="url(#b10mctg9dmscjo0)">* total_donated_cents : BIGINT</text><text x="209.82" y="174.14" fill="#000" font-size="11" textLength="137.581" font-family="'Segoe UI, Helvetica, Arial'" filter="url(#b10mctg9dmscjo0)">last_donation_id : BIGINT</text><text x="209.82" y="186.945" fill="#000" font-size="11" textLength="179.099" font-family="'Segoe UI, Helvetica, Arial'" filter="url(#b10mctg9dmscjo0)">last_donation_at : TIMESTAMPTZ</text><text x="209.82" y="199.75" fill="#000" font-size="11" textLength="164.227" font-family="'Segoe UI, Helvetica, Arial'" filter="url(#b10mctg9dmscjo0)">last_donor_person_id : BIGINT</text></g><!--class p--><g class="entity" data-qualified-name="p" id="ent0002" data-source-line="17"><rect x="37" y="266.347" width="192.753" height="174.852" fill="#FFF" style="stroke:#5A6B7D;stroke-width:0.5;" rx="2.5" ry="2.5"/><rect x="37" y="266.347" width="192.753" height="22.805" fill="#E8EDF4" style="stroke:#E8EDF4;stroke-width:0.5;" rx="2.5" ry="2.5"/><rect x="37" y="286.652" width="192.753" height="2.5" fill="#E8EDF4" style="stroke:#E8EDF4;stroke-width:0.5;"/><rect x="37" y="266.347" width="192.753" height="174.852" fill="none" style="stroke:#5A6B7D;stroke-width:0.5;" rx="2.5" ry="2.5"/><text x="114.524" y="281.557" fill="#000" font-size="11" textLength="37.705" font-family="'Segoe UI, Helvetica, Arial'">person</text><line x1="38" y1="289.152" x2="228.753" y2="289.152" style="stroke:#5A6B7D;stroke-width:0.5;"/><g data-visibility-modifier="IE_MANDATORY"><ellipse cx="48" cy="301.054" rx="3" ry="3" fill="#000" style="stroke:#000;stroke-width:1;"/></g><text x="56" y="303.362" fill="#000" font-size="11" textLength="132.252" font-family="'Segoe UI, Helvetica, Arial'">person_id : BIGINT «PK»</text><line x1="38" y1="309.956" x2="228.753" y2="309.956" style="stroke:#5A6B7D;stroke-width:1;"/><g data-visibility-modifier="IE_MANDATORY"><ellipse cx="48" cy="321.859" rx="3" ry="3" fill="#000" style="stroke:#000;stroke-width:1;"/></g><text x="56" y="324.167" fill="#000" font-size="11" textLength="132.403" font-family="'Segoe UI, Helvetica, Arial'">charity_id : BIGINT «FK»</text><g data-visibility-modifier="IE_MANDATORY"><ellipse cx="48" cy="334.663" rx="3" ry="3" fill="#000" style="stroke:#000;stroke-width:1;"/></g><text x="56" y="336.971" fill="#000" font-size="11" textLength="92.275" font-family="'Segoe UI, Helvetica, Arial'">full_name : TEXT</text><g data-visibility-modifier="IE_MANDATORY"><ellipse cx="48" cy="347.468" rx="3" ry="3" fill="#000" style="stroke:#000;stroke-width:1;"/></g><text x="56" y="349.776" fill="#000" font-size="11" textLength="68.959" font-family="'Segoe UI, Helvetica, Arial'">email : TEXT</text><g data-visibility-modifier="IE_MANDATORY"><ellipse cx="48" cy="360.273" rx="3" ry="3" fill="#000" style="stroke:#000;stroke-width:1;"/></g><text x="56" y="362.581" fill="#000" font-size="11" textLength="138.827" font-family="'Segoe UI, Helvetica, Arial'">joined_at : TIMESTAMPTZ</text><line x1="38" y1="369.175" x2="228.753" y2="369.175" style="stroke:#5A6B7D;stroke-width:1;"/><text x="43" y="383.385" fill="#000" font-size="11" textLength="142.232" font-family="'Segoe UI, Helvetica, Arial'" filter="url(#b10mctg9dmscjo0)">* donation_count : BIGINT</text><text x="43" y="396.19" fill="#000" font-size="11" textLength="168.674" font-family="'Segoe UI, Helvetica, Arial'" filter="url(#b10mctg9dmscjo0)">* total_donated_cents : BIGINT</text><text x="43" y="408.995" fill="#000" font-size="11" textLength="180.753" font-family="'Segoe UI, Helvetica, Arial'" filter="url(#b10mctg9dmscjo0)">first_donation_at : TIMESTAMPTZ</text><text x="43" y="421.8" fill="#000" font-size="11" textLength="179.099" font-family="'Segoe UI, Helvetica, Arial'" filter="url(#b10mctg9dmscjo0)">last_donation_at : TIMESTAMPTZ</text><text x="43" y="434.604" fill="#000" font-size="11" textLength="137.581" font-family="'Segoe UI, Helvetica, Arial'" filter="url(#b10mctg9dmscjo0)">last_donation_id : BIGINT</text></g><!--class d--><g class="entity" data-qualified-name="d" id="ent0003" data-source-line="31"><rect x="128.5" y="501.197" width="175.75" height="128.438" fill="#FFF" style="stroke:#5A6B7D;stroke-width:0.5;" rx="2.5" ry="2.5"/><rect x="128.5" y="501.197" width="175.75" height="22.805" fill="#E8EDF4" style="stroke:#E8EDF4;stroke-width:0.5;" rx="2.5" ry="2.5"/><rect x="128.5" y="521.502" width="175.75" height="2.5" fill="#E8EDF4" style="stroke:#E8EDF4;stroke-width:0.5;"/><rect x="128.5" y="501.197" width="175.75" height="128.438" fill="none" style="stroke:#5A6B7D;stroke-width:0.5;" rx="2.5" ry="2.5"/><text x="192.127" y="516.407" fill="#000" font-size="11" textLength="48.496" font-family="'Segoe UI, Helvetica, Arial'">donation</text><line x1="129.5" y1="524.002" x2="303.25" y2="524.002" style="stroke:#5A6B7D;stroke-width:0.5;"/><g data-visibility-modifier="IE_MANDATORY"><ellipse cx="139.5" cy="535.904" rx="3" ry="3" fill="#000" style="stroke:#000;stroke-width:1;"/></g><text x="147.5" y="538.212" fill="#000" font-size="11" textLength="143.043" font-family="'Segoe UI, Helvetica, Arial'">donation_id : BIGINT «PK»</text><line x1="129.5" y1="544.806" x2="303.25" y2="544.806" style="stroke:#5A6B7D;stroke-width:1;"/><g data-visibility-modifier="IE_MANDATORY"><ellipse cx="139.5" cy="556.709" rx="3" ry="3" fill="#000" style="stroke:#000;stroke-width:1;"/></g><text x="147.5" y="559.017" fill="#000" font-size="11" textLength="131.946" font-family="'Segoe UI, Helvetica, Arial'">person_id : BIGINT «FK»</text><text x="147.5" y="571.821" fill="#000" font-size="11" textLength="141.399" font-family="'Segoe UI, Helvetica, Arial'" filter="url(#b10mctg9dmscjo1)">* charity_id : BIGINT «FK»</text><g data-visibility-modifier="IE_MANDATORY"><ellipse cx="139.5" cy="582.318" rx="3" ry="3" fill="#000" style="stroke:#000;stroke-width:1;"/></g><text x="147.5" y="584.626" fill="#000" font-size="11" textLength="125.979" font-family="'Segoe UI, Helvetica, Arial'">amount_cents : BIGINT</text><g data-visibility-modifier="IE_MANDATORY"><ellipse cx="139.5" cy="595.123" rx="3" ry="3" fill="#000" style="stroke:#000;stroke-width:1;"/></g><text x="147.5" y="597.431" fill="#000" font-size="11" textLength="105.762" font-family="'Segoe UI, Helvetica, Arial'">currency : CHAR(3)</text><g data-visibility-modifier="IE_MANDATORY"><ellipse cx="139.5" cy="607.927" rx="3" ry="3" fill="#000" style="stroke:#000;stroke-width:1;"/></g><text x="147.5" y="610.235" fill="#000" font-size="11" textLength="150.75" font-family="'Segoe UI, Helvetica, Arial'">donated_at : TIMESTAMPTZ</text><text x="147.5" y="623.04" fill="#000" font-size="11" textLength="63.406" font-family="'Segoe UI, Helvetica, Arial'">note : TEXT</text></g><g class="entity" data-qualified-name="GMN9" id="ent0010" data-source-line="49"><path d="M369.65,310.357 L369.65,397.185 A0,0 0 0 0 369.65,397.185 L619.099,397.185 A0,0 0 0 0 619.099,397.185 L619.099,320.357 L609.099,310.357 L386.29,310.357 L382.29,206.827 L378.29,310.357 L369.65,310.357 A0,0 0 0 0 369.65,310.357" style="stroke:#BDBDB0;stroke-width:0.5;" fill="#FBFBF6"/><path d="M609.099,310.357 L609.099,320.357 L619.099,320.357 L609.099,310.357" style="stroke:#BDBDB0;stroke-width:0.5;" fill="#FBFBF6"/><text x="375.65" y="325.567" fill="#000" font-size="11" font-family="'Segoe UI, Helvetica, Arial'" filter="url(#b10mctg9dmscjo2)"> </text><text x="379.147" y="325.567" fill="#000" font-size="11" textLength="78.423" font-weight="700" font-family="'Segoe UI, Helvetica, Arial'" filter="url(#b10mctg9dmscjo2)">The hot row.</text><text x="457.57" y="325.567" fill="#000" font-size="11" font-family="'Segoe UI, Helvetica, Arial'" filter="url(#b10mctg9dmscjo2)"> </text><text x="464.563" y="325.567" fill="#000" font-size="11" textLength="109.232" font-family="'Segoe UI, Helvetica, Arial'">Ten charities, every</text><text x="375.65" y="338.372" fill="#000" font-size="11" textLength="228.449" font-family="'Segoe UI, Helvetica, Arial'">donation in the system. Every concurrent</text><text x="375.65" y="351.177" fill="#000" font-size="11" textLength="210.708" font-family="'Segoe UI, Helvetica, Arial'">write to the same charity serialises on</text><text x="375.65" y="363.981" fill="#000" font-size="11" textLength="205.922" font-family="'Segoe UI, Helvetica, Arial'">this one row. That contention is not a</text><text x="375.65" y="376.786" fill="#000" font-size="11" textLength="207.104" font-family="'Segoe UI, Helvetica, Arial'">flaw in the design — it IS the design's</text><text x="375.65" y="389.591" fill="#000" font-size="11" textLength="204.918" font-family="'Segoe UI, Helvetica, Arial'">price, and experiment C measures it.</text></g><g class="entity" data-qualified-name="GMN12" id="ent0013" data-source-line="58"><path d="M22.96,689.637 L22.96,866.098 A0,0 0 0 0 22.96,866.098 L409.785,866.098 A0,0 0 0 0 409.785,866.098 L409.785,699.637 L399.785,689.637 L220.37,689.637 L216.37,630.027 L212.37,689.637 L22.96,689.637 A0,0 0 0 0 22.96,689.637" style="stroke:#BDBDB0;stroke-width:0.5;" fill="#FBFBF6"/><path d="M399.785,689.637 L399.785,699.637 L409.785,699.637 L399.785,689.637" style="stroke:#BDBDB0;stroke-width:0.5;" fill="#FBFBF6"/><text x="28.96" y="704.847" fill="#000" font-size="11" textLength="286.607" font-weight="700" font-family="'Segoe UI, Helvetica, Arial'">all D3 indexes, minus the covering index, plus</text><text x="28.96" y="717.652" fill="#000" font-size="11" textLength="147.915" font-weight="700" font-family="'Segoe UI, Helvetica, Arial'">+ person_top_donor_idx</text><text x="180.371" y="717.652" fill="#000" font-size="11" textLength="214.328" font-family="'Segoe UI, Helvetica, Arial'">(charity_id, total_donated_cents DESC)</text><text x="28.96" y="730.457" fill="#000" font-size="11" textLength="169.082" font-weight="700" font-family="'Segoe UI, Helvetica, Arial'">+ person_last_donation_idx</text><text x="201.539" y="730.457" fill="#000" font-size="11" textLength="193.247" font-family="'Segoe UI, Helvetica, Arial'">(charity_id, last_donation_at DESC)</text><text x="28.96" y="743.261" fill="#000" font-size="11" font-family="'Segoe UI, Helvetica, Arial'"> </text><text x="28.96" y="756.066" fill="#000" font-size="11" textLength="266.02" font-family="'Segoe UI, Helvetica, Arial'">Seven of twelve queries stop touching this table</text><text x="28.96" y="768.871" fill="#000" font-size="11" textLength="278.346" font-family="'Segoe UI, Helvetica, Arial'">entirely and become single-row primary-key reads</text><text x="28.96" y="781.675" fill="#000" font-size="11" textLength="293.235" font-family="'Segoe UI, Helvetica, Arial'">whose cost does not depend on how many donations</text><text x="28.96" y="794.48" fill="#000" font-size="11" textLength="29.874" font-family="'Segoe UI, Helvetica, Arial'">exist.</text><text x="28.96" y="807.285" fill="#000" font-size="11" font-family="'Segoe UI, Helvetica, Arial'"> </text><text x="28.96" y="820.09" fill="#000" font-size="11" textLength="297.768" font-family="'Segoe UI, Helvetica, Arial'">The asymmetry to watch: INSERT is cheap (increment</text><text x="28.96" y="832.894" fill="#000" font-size="11" textLength="293.111" font-family="'Segoe UI, Helvetica, Arial'">a counter, compare a timestamp). DELETE is not — a</text><text x="28.96" y="845.699" fill="#000" font-size="11" textLength="305.76" font-family="'Segoe UI, Helvetica, Arial'">MAX cannot be decremented, so the extreme has to be</text><text x="28.96" y="858.504" fill="#000" font-size="11" textLength="222.863" font-family="'Segoe UI, Helvetica, Arial'">recomputed from the surviving children.</text></g><!--link c to p--><g class="link" data-entity-1="ent0001" data-entity-2="ent0002" id="lnk4" data-source-line="41" data-link-type="crowfoot"><path d="M216.79,214.827 C216.79,234.057 216.79,228.627 216.79,248.107" style="stroke:#5A6B7D;stroke-width:1;" fill="none" id="c-p" codeLine="41"/><line x1="212.79" y1="210.827" x2="220.79" y2="210.827" style="stroke:#5A6B7D;stroke-width:1;"/><line x1="212.79" y1="213.827" x2="220.79" y2="213.827" style="stroke:#5A6B7D;stroke-width:1;"/><line x1="216.79" y1="214.827" x2="216.79" y2="206.827" style="stroke:#5A6B7D;stroke-width:1;"/><line x1="216.79" y1="258.107" x2="222.79" y2="266.107" style="stroke:#5A6B7D;stroke-width:1;"/><line x1="216.79" y1="258.107" x2="210.79" y2="266.107" style="stroke:#5A6B7D;stroke-width:1;"/><line x1="216.79" y1="258.107" x2="216.79" y2="266.107" style="stroke:#5A6B7D;stroke-width:1;"/><ellipse cx="216.79" cy="252.107" rx="4" ry="4" fill="none" style="stroke:#5A6B7D;stroke-width:1;"/></g><!--link p to d--><g class="link" data-entity-1="ent0002" data-entity-2="ent0003" id="lnk5" data-source-line="42" data-link-type="crowfoot"><path d="M162.25,449.687 C162.25,469.567 162.25,464.307 162.25,483.007" style="stroke:#5A6B7D;stroke-width:1;" fill="none" id="p-d" codeLine="42"/><line x1="158.25" y1="445.687" x2="166.25" y2="445.687" style="stroke:#5A6B7D;stroke-width:1;"/><line x1="158.25" y1="448.687" x2="166.25" y2="448.687" style="stroke:#5A6B7D;stroke-width:1;"/><line x1="162.25" y1="449.687" x2="162.25" y2="441.687" style="stroke:#5A6B7D;stroke-width:1;"/><line x1="162.25" y1="493.007" x2="168.25" y2="501.007" style="stroke:#5A6B7D;stroke-width:1;"/><line x1="162.25" y1="493.007" x2="156.25" y2="501.007" style="stroke:#5A6B7D;stroke-width:1;"/><line x1="162.25" y1="493.007" x2="162.25" y2="501.007" style="stroke:#5A6B7D;stroke-width:1;"/><ellipse cx="162.25" cy="487.007" rx="4" ry="4" fill="none" style="stroke:#5A6B7D;stroke-width:1;"/></g><!--link d to p--><g class="link" data-entity-1="ent0003" data-entity-2="ent0002" id="lnk7" data-source-line="45" data-link-type="dependency"><path d="M196,500.767 C196,482.047 196,466.287 196,446.417" style="stroke:#B03A2E;stroke-width:2;" fill="none" id="d-to-p" codeLine="45"/><polygon points="196,441.417,192,450.417,196,446.417,200,450.417,196,441.417" fill="#B03A2E" style="stroke:#B03A2E;stroke-width:2;stroke-linejoin:miter;stroke-miterlimit:10;"/><text x="7" y="454.226" fill="#5A6B7D" font-size="12" textLength="188.027" font-family="'Segoe UI, Helvetica, Arial'">AFTER INSERT/UPDATE/DELETE</text><text x="13.428" y="468.194" fill="#5A6B7D" font-size="12" textLength="175.172" font-family="'Segoe UI, Helvetica, Arial'">trigger updates 1 person row</text></g><!--link c to d--><g class="link" data-entity-1="ent0001" data-entity-2="ent0003" id="lnk6" data-source-line="43" data-link-type="crowfoot"><path d="M254.58,214.817 C254.58,299.667 254.58,404.867 254.58,482.827" style="stroke:#5A6B7D;stroke-width:1;stroke-dasharray:7,7;" fill="none" id="c-d" codeLine="43"/><line x1="250.58" y1="210.817" x2="258.58" y2="210.817" style="stroke:#5A6B7D;stroke-width:1;"/><line x1="250.58" y1="213.817" x2="258.58" y2="213.817" style="stroke:#5A6B7D;stroke-width:1;"/><line x1="254.58" y1="214.817" x2="254.58" y2="206.817" style="stroke:#5A6B7D;stroke-width:1;"/><line x1="254.58" y1="492.827" x2="260.58" y2="500.827" style="stroke:#5A6B7D;stroke-width:1;"/><line x1="254.58" y1="492.827" x2="248.58" y2="500.827" style="stroke:#5A6B7D;stroke-width:1;"/><line x1="254.58" y1="492.827" x2="254.58" y2="500.827" style="stroke:#5A6B7D;stroke-width:1;"/><ellipse cx="254.58" cy="486.827" rx="4" ry="4" fill="none" style="stroke:#5A6B7D;stroke-width:1;"/></g><!--link d to c--><g class="link" data-entity-1="ent0003" data-entity-2="ent0001" id="lnk8" data-source-line="46" data-link-type="dependency"><path d="M279.42,500.957 C279.42,422.997 279.42,296.717 279.42,211.817" style="stroke:#B03A2E;stroke-width:2;" fill="none" id="d-to-c" codeLine="46"/><polygon points="279.42,206.817,275.42,215.817,279.42,211.817,283.42,215.817,279.42,206.817" fill="#B03A2E" style="stroke:#B03A2E;stroke-width:2;stroke-linejoin:miter;stroke-miterlimit:10;"/><text x="250.92" y="366.026" fill="#5A6B7D" font-size="12" textLength="116.818" font-family="'Segoe UI, Helvetica, Arial'">...and 1 charity row</text></g><?plantuml-src nLRRRkCs47ttLqop3qrKMzbk-b04gG6lBRT6cqKGgy2Y5nYqE8xOKAIMf68Bkmlq8_g5_PBEIBBZnaQsm3xKJyHepWpdd4FINoYJwKeYB7oeDSPbLUXUK44ZJBw1l__y2vpLkYe7mQcxEtG0fyBuDJeFcJNUQYL5G0bLkHPEWWYmTYeW15NWMQ-7XchLS9BbWiBr2GZ2mViUG0HTRA4aNCBhsVUpDobSNTtyE1pIvy6WoJ6YGFgQ9c_J5cCh4roz7rfHIA9SM4FHoIXDjkYhfSZkBrzClfs-d2J32AGr8YXh5asHNS-hSyuR7W446uHUD32gdz4i_fCeBNnOx3hjZVRV08BtbSwkatawkhv9V_aKohf5ILeSR_LnHt-Rqx1VTkmVmWx8FoxGjCqXuYkj5qy5ma8elH_umof3x3qTx7yLQQNSvv3-EQXdPTfcDKB9JgXZq0EfZghPATLjPpgTNemdm-TaVHmX0b6m04y8RMrHEOScuqCu_c5qUtfnzhZFuqeR6tOc-TZBuCE7mS2-Xx9NRfUoYSPni-n96FpwulNBYz6hf1zobTqRzFwxLxyFXcJVIpWPJTFa5cPlvibjUlxp3H_wyqdoKv8clvdjFLMLV35v-BhZXkwnzSbpbJEk7CUnC9907KajgjSCiBGXs0Bi2h9zLiVq6q8KfJb2RWCZuYY2Zaj8qNJ55Fe-u0Ewck1RLK4P28JqjGzOn93mTxvQMvO3fNONgctp-BnjD-VHAQ6Lfp6jeKoQY5VOx07IdAIWIe7jnPqy2m624bTQhBUT9NfrPvghNWMOpVU2NthABPtAi0zC2sw8IxhOwM2EeK3XAqUjLOZ9mR9H-O0goTw8XDOmkQ2E4ZVCGg5CvPj6cQM1bRbhl_MXr9MFeWRqrTRLmPRTNQVaXgWzVNHm_-ZvdoJpyTc_QpmzXGTr3WvtMuIgp4apmxE4DUe7X7SLxPZczhGlQbzbEU-_uJw8fKQ2CECETTsmjiJCacYUiZGEI1gcj12k7jmZ6Go5P9hNkVLCXm_a3MobabWoiQHTJgX2c7hd6uRWHddYdbRiFU7hea1-7CagQn6o_B8x8gnybgCeuPHUUuT5wolHlgRe-hGeIk6eHlDk-o2AyYo6zaXjVSC6OUzSZzv29Wo7bcoKhY0IXxxrA6u2no2dMupsicH679DGLlnNOUN86esNA_UW7fWyeb1BilkZaVu1?></g></svg>